<svg xmlns="http://www.w3.org/2000/svg" xmlns:xlink="http://www.w3.org/1999/xlink" width="398" height="258" viewBox="0 0 398 258"><defs><filter id="a" x="0" y="0" width="398" height="258" filterUnits="userSpaceOnUse"><feOffset dy="3" input="SourceAlpha"/><feGaussianBlur stdDeviation="3" result="b"/><feFlood flood-opacity="0.161"/><feComposite operator="in" in2="b"/><feComposite in="SourceGraphic"/></filter></defs><g transform="translate(-239 -40)"><g transform="matrix(1, 0, 0, 1, 239, 40)" filter="url(#a)"><rect width="380" height="240" rx="30" transform="translate(9 6)" fill="rgba(223,223,223,0.1)" opacity="0.9"/></g><g transform="translate(321 109.142)"><text transform="translate(117 69.717)" fill="#0b0d39" font-size="64" font-family="Poppins-Bold, Poppins" font-weight="700" letter-spacing="-0.043em"><tspan x="-118.016" y="0">Physics</tspan></text><g transform="translate(-0.5 1.003)"><g transform="translate(128 94.717)" fill="#0b0d39" stroke="#fff" stroke-width="6"><ellipse cx="27" cy="27.5" rx="27" ry="27.5" stroke="none"/><ellipse cx="27" cy="27.5" rx="30" ry="30.5" fill="none"/></g><g transform="translate(87 94.717)" fill="#f2fbfc" stroke="#00c254" stroke-width="6"><circle cx="27.5" cy="27.5" r="27.5" stroke="none"/><circle cx="27.5" cy="27.5" r="30.5" fill="none"/></g><g transform="translate(53 95)" fill="#00c254"><path d="M 27 58 C 22.94448089599609 58 19.00918960571289 57.1905517578125 15.30344009399414 55.59412002563477 C 11.72929954528809 54.05438995361328 8.520919799804688 51.85168838500977 5.767419815063477 49.04721069335938 C 3.017679929733276 46.24654006958008 0.8589500188827515 42.98553848266602 -0.6488100290298462 39.35480117797852 C -2.208940029144287 35.5979118347168 -3 31.6093807220459 -3 27.5 C -3 23.3906192779541 -2.208940029144287 19.40209007263184 -0.6488100290298462 15.6451997756958 C 0.8589500188827515 12.01445960998535 3.017679929733276 8.753459930419922 5.767419815063477 5.952789783477783 C 8.520919799804688 3.148309946060181 11.72929954528809 0.945609986782074 15.30344009399414 -0.5941200256347656 C 19.00918960571289 -2.190550088882446 22.94448089599609 -3 27 -3 C 31.05551910400391 -3 34.99081039428711 -2.190550088882446 38.69655990600586 -0.5941200256347656 C 42.27069854736328 0.945609986782074 45.47908020019531 3.148309946060181 48.23257827758789 5.952789783477783 C 50.98231887817383 8.753459930419922 53.14104843139648 12.01445960998535 54.64881134033203 15.6451997756958 C 56.20893859863281 19.40209007263184 57 23.3906192779541 57 27.5 C 57 31.6093807220459 56.20893859863281 35.5979118347168 54.64881134033203 39.35480117797852 C 53.14104843139648 42.98553848266602 50.98231887817383 46.24654006958008 48.23257827758789 49.04721069335938 C 45.47908020019531 51.85168838500977 42.27069854736328 54.05438995361328 38.69655990600586 55.59412002563477 C 34.99081039428711 57.1905517578125 31.05551910400391 58 27 58 Z" stroke="none"/><path d="M 27 0 C 12.08830642700195 0 0 12.31217193603516 0 27.5 C 0 42.68782806396484 12.08830642700195 55 27 55 C 41.91168212890625 55 54 42.68782806396484 54 27.5 C 54 12.31217193603516 41.91168212890625 0 27 0 M 27 -6 C 45.19626617431641 -6 60 9.028041839599609 60 27.5 C 60 45.97196197509766 45.19626617431641 61 27 61 C 8.803733825683594 61 -6 45.97196197509766 -6 27.5 C -6 9.028041839599609 8.803733825683594 -6 27 -6 Z" stroke="none" fill="#fff"/></g></g></g><g transform="translate(354 63.142)"><rect width="143" height="50" rx="25" transform="translate(12 -0.283)" fill="rgba(0,194,84,0.2)"/><text transform="translate(83 31.717)" fill="#00c254" font-size="18" font-family="DMSans-Bold, DM Sans" font-weight="700" letter-spacing="0.177em"><tspan x="-46.395" y="0">PHYSICS</tspan></text></g></g></svg>