<svg width="141" height="67" xmlns="http://www.w3.org/2000/svg" xmlns:xlink="http://www.w3.org/1999/xlink" xml:space="preserve" overflow="hidden"><defs><clipPath id="clip0"><rect x="399" y="193" width="141" height="67"/></clipPath></defs><g clip-path="url(#clip0)" transform="translate(-399 -193)"><path d="M533.729 226.359C533.729 241.483 521.691 253.743 506.842 253.743 491.993 253.743 479.956 241.483 479.956 226.359 479.956 211.235 491.993 198.975 506.842 198.975 521.691 198.975 533.729 211.235 533.729 226.359Z" fill="#0B0D39"/><path d="M536.716 226.359C536.716 243.133 523.341 256.731 506.842 256.731 490.343 256.731 476.968 243.133 476.968 226.359 476.968 209.585 490.343 195.987 506.842 195.987 523.341 195.987 536.716 209.585 536.716 226.359Z" stroke="#FFFFFF" stroke-width="5.97476" fill="none"/><path d="M493.897 226.359C493.897 241.483 481.637 253.743 466.513 253.743 451.389 253.743 439.128 241.483 439.128 226.359 439.128 211.235 451.389 198.975 466.513 198.975 481.637 198.975 493.897 211.235 493.897 226.359Z" fill="#F2FBFC"/><path d="M496.884 226.359C496.884 243.133 483.286 256.731 466.513 256.731 449.739 256.731 436.141 243.133 436.141 226.359 436.141 209.585 449.739 195.987 466.513 195.987 483.286 195.987 496.884 209.585 496.884 226.359Z" stroke="#356DFF" stroke-width="5.97476" fill="none"/><path d="M432.158 257.013C428.119 257.013 424.201 256.207 420.51 254.617 416.951 253.084 413.756 250.89 411.014 248.097 408.276 245.309 406.127 242.061 404.625 238.446 403.072 234.705 402.284 230.733 402.284 226.641 402.284 222.549 403.072 218.577 404.625 214.836 406.127 211.221 408.276 207.973 411.014 205.184 413.756 202.392 416.951 200.198 420.51 198.665 424.201 197.075 428.119 196.269 432.158 196.269 436.196 196.269 440.115 197.075 443.805 198.665 447.364 200.198 450.559 202.392 453.301 205.184 456.039 207.973 458.189 211.221 459.69 214.836 461.244 218.577 462.032 222.549 462.032 226.641 462.032 230.733 461.244 234.705 459.69 238.446 458.189 242.061 456.039 245.309 453.301 248.097 450.559 250.89 447.364 253.084 443.805 254.617 440.115 256.207 436.196 257.013 432.158 257.013Z" fill="#2B2D5B"/><path d="M432.158 199.257C417.309 199.257 405.271 211.517 405.271 226.641 405.271 241.765 417.309 254.025 432.158 254.025 447.007 254.025 459.044 241.765 459.044 226.641 459.044 211.517 447.007 199.257 432.158 199.257M432.158 193.282C450.277 193.282 465.019 208.247 465.019 226.641 465.019 245.035 450.277 260 432.158 260 414.038 260 399.297 245.035 399.297 226.641 399.297 208.247 414.038 193.282 432.158 193.282Z" fill="#FFFFFF"/></g></svg>