<svg width="54" height="72" xmlns="http://www.w3.org/2000/svg" xmlns:xlink="http://www.w3.org/1999/xlink" xml:space="preserve" overflow="hidden"><defs><clipPath id="clip0"><rect x="505" y="413" width="54" height="72"/></clipPath></defs><g clip-path="url(#clip0)" transform="translate(-505 -413)"><path d="M535.186 414.501 512.887 414.501C509.226 414.654 506.377 417.739 506.517 421.401L506.517 476.599C506.377 480.261 509.226 483.346 512.887 483.499L551.112 483.499C554.773 483.346 557.622 480.261 557.482 476.599L557.482 438.65Z" stroke="#FA66A4" stroke-width="3.00246" stroke-linecap="round" stroke-linejoin="round" fill="none"/><text fill="#FA66A4" font-family="Kanit,Kanit_MSFontService,sans-serif" font-weight="700" font-size="16" transform="matrix(1.00082 0 0 1.00082 516.045 467)">PNG</text><path d="M523.3 421.03 539.139 421.03C543.001 421.03 558.122 434.43 558.122 438.292L558.263 476.97C558.263 480.832 555.132 483.963 551.27 483.963L523.3 483.963C519.438 483.963 516.307 480.832 516.307 476.97L516.307 428.022C516.307 424.16 519.438 421.03 523.3 421.03Z" fill="#FA66A4" fill-opacity="0.3"/><path d="M533.333 414.501 533.333 438.65 557.482 438.65" stroke="#FA66A4" stroke-width="3.00246" stroke-linecap="round" stroke-linejoin="round" fill="none"/></g></svg>