<svg width="54" height="72" xmlns="http://www.w3.org/2000/svg" xmlns:xlink="http://www.w3.org/1999/xlink" xml:space="preserve" overflow="hidden"><defs><clipPath id="clip0"><rect x="866" y="266" width="54" height="72"/></clipPath></defs><g clip-path="url(#clip0)" transform="translate(-866 -266)"><path d="M896.186 267.501 873.887 267.501C870.226 267.654 867.377 270.739 867.517 274.401L867.517 329.599C867.377 333.261 870.226 336.346 873.887 336.499L912.112 336.499C915.773 336.346 918.622 333.261 918.482 329.599L918.482 291.65Z" stroke="#486CC2" stroke-width="3.00246" stroke-linecap="round" stroke-linejoin="round" fill="none"/><text fill="#486CC2" font-family="Kanit,Kanit_MSFontService,sans-serif" font-weight="700" font-size="16" transform="matrix(1.00082 0 0 1.00082 877.045 320)">PDF</text><path d="M884.3 274.03 900.139 274.03C904.001 274.03 919.122 287.43 919.122 291.292L919.263 329.97C919.263 333.832 916.132 336.963 912.27 336.963L884.3 336.963C880.438 336.963 877.307 333.832 877.307 329.97L877.307 281.022C877.307 277.16 880.438 274.03 884.3 274.03Z" fill="#486CC2" fill-opacity="0.3"/><path d="M894.333 267.501 894.333 291.65 918.482 291.65" stroke="#486CC2" stroke-width="3.00246" stroke-linecap="round" stroke-linejoin="round" fill="none"/></g></svg>