<svg width="25" height="25" xmlns="http://www.w3.org/2000/svg" xmlns:xlink="http://www.w3.org/1999/xlink" xml:space="preserve" overflow="hidden"><defs><clipPath id="clip0"><rect x="771" y="424" width="25" height="25"/></clipPath></defs><g clip-path="url(#clip0)" transform="translate(-771 -424)"><path d="M794.533 438.817C794.533 444.187 790.18 448.54 784.81 448.54 779.441 448.54 775.088 444.187 775.088 438.817 775.088 433.448 779.441 429.095 784.81 429.095 790.18 429.095 794.533 433.448 794.533 438.817Z" fill="#486CC2" fill-opacity="0.2"/><path d="M786.411 438.536 784.372 436.497 786.411 434.459C786.652 434.217 786.652 433.826 786.411 433.584 786.169 433.343 785.778 433.343 785.536 433.584L783.497 435.623 781.459 433.584C781.217 433.343 780.826 433.343 780.584 433.584 780.343 433.826 780.343 434.217 780.584 434.459L782.621 436.497 780.582 438.536C780.341 438.76 780.327 439.137 780.55 439.379 780.561 439.39 780.571 439.4 780.582 439.411 780.821 439.652 781.209 439.655 781.451 439.417 781.453 439.415 781.455 439.413 781.457 439.411L783.496 437.372 785.534 439.411C785.776 439.651 786.167 439.651 786.409 439.411 786.651 439.173 786.654 438.784 786.417 438.542 786.415 438.54 786.413 438.538 786.411 438.536Z" fill="#486CC2"/><path d="M783.5 425.683C789.471 425.687 794.309 430.531 794.305 436.503 794.3 442.475 789.456 447.313 783.484 447.308 777.512 447.304 772.675 442.46 772.679 436.488 772.681 433.623 773.82 430.875 775.846 428.849 777.872 426.814 780.628 425.673 783.5 425.683M783.5 424C776.596 424.001 771 429.597 771.001 436.501 771.002 443.404 776.598 449 783.501 448.999 790.404 448.998 796 443.402 796 436.5 796.001 429.597 790.407 424.001 783.504 424 783.503 424 783.501 424 783.5 424Z" fill="#486CC2"/></g></svg>