<svg id="lock" xmlns="http://www.w3.org/2000/svg" width="36" height="35" viewBox="0 0 36 35">
  <rect id="Frame" width="36" height="35" fill="#25314c" opacity="0"/>
  <path id="lock-2" data-name="lock" d="M2270.74,3079.2v-1.929a7.026,7.026,0,1,0-14.052,0v1.929c-2.867.382-4.437,2.282-4.437,5.467v8.875c0,3.577,1.97,5.547,5.547,5.547h11.833c3.577,0,5.547-1.97,5.547-5.547v-8.875C2275.177,3081.487,2273.606,3079.586,2270.74,3079.2Zm-7.026-6.736a4.813,4.813,0,0,1,4.807,4.808v1.849h-9.615v-1.849A4.813,4.813,0,0,1,2263.713,3072.468Zm9.245,21.078c0,2.333-1,3.328-3.328,3.328H2257.8c-2.333,0-3.328-1-3.328-3.328v-8.875c0-2.333,1-3.328,3.328-3.328h11.833c2.333,0,3.328,1,3.328,3.328Zm-7.366-5.917a1.814,1.814,0,0,1-.769,1.46v2.978a1.109,1.109,0,0,1-2.219,0v-3.015a1.814,1.814,0,0,1-.718-1.423,1.843,1.843,0,0,1,1.842-1.849h.015A1.85,1.85,0,0,1,2265.592,3087.63Z" transform="translate(-2245.964 -3067.421)" fill="#25314c"/>
</svg>
